<svg width="16" height="16" viewBox="0 0 16 16" fill="none" xmlns="http://www.w3.org/2000/svg">
<path d="M14.7691 5.36003C14.685 5.25892 14.5818 5.17538 14.4654 5.11421C14.349 5.05304 14.2216 5.01544 14.0907 5.00355C13.9597 4.99166 13.8277 5.00572 13.7021 5.04492C13.5766 5.08413 13.46 5.14771 13.3591 5.23203L8.00011 9.70003L2.64111 5.23203C2.54025 5.14785 2.42381 5.08436 2.29841 5.04519C2.17302 5.00602 2.04114 4.99192 1.91031 5.00372C1.77947 5.01551 1.65223 5.05296 1.53587 5.11392C1.4195 5.17489 1.31629 5.25817 1.23211 5.35903C1.14793 5.45989 1.08444 5.57633 1.04527 5.70172C1.00609 5.82712 0.992002 5.95899 1.00379 6.08983C1.01559 6.22067 1.05304 6.3479 1.114 6.46427C1.17497 6.58063 1.25825 6.68385 1.35911 6.76803L7.35911 11.768C7.53894 11.9182 7.76581 12.0005 8.00011 12.0005C8.23441 12.0005 8.46127 11.9182 8.64111 11.768L14.6411 6.76803C14.8447 6.59825 14.9726 6.35456 14.9966 6.09053C15.0206 5.8265 14.9388 5.56375 14.7691 5.36003Z" fill="white"/>
</svg>
