<svg width="32" height="16" viewBox="0 0 32 16" fill="none" xmlns="http://www.w3.org/2000/svg">
<g clip-path="url(#clip0_41_98)">
<path d="M16 10C15.6044 10 15.2178 9.8827 14.8889 9.66294C14.56 9.44318 14.3036 9.13082 14.1522 8.76537C14.0009 8.39992 13.9613 7.99778 14.0384 7.60982C14.1156 7.22186 14.3061 6.86549 14.5858 6.58579C14.8655 6.30608 15.2219 6.1156 15.6098 6.03843C15.9978 5.96126 16.3999 6.00087 16.7654 6.15224C17.1308 6.30362 17.4432 6.55996 17.6629 6.88886C17.8827 7.21776 18 7.60444 18 8C18 8.53043 17.7893 9.03914 17.4142 9.41421C17.0391 9.78929 16.5304 10 16 10Z" fill="#F9E507"/>
<path d="M22.5 5.97602C22.4501 5.97629 22.4004 5.96852 22.353 5.95302C18.2121 4.68803 13.7879 4.68803 9.647 5.95302C9.57195 5.97735 9.49214 5.98324 9.41433 5.97018C9.33652 5.95713 9.263 5.92551 9.2 5.87802C9.1379 5.83144 9.0875 5.77105 9.05279 5.70162C9.01807 5.6322 9 5.55564 9 5.47802V1.52502C9.00008 1.41958 9.03349 1.31686 9.09545 1.23155C9.15741 1.14624 9.24476 1.0827 9.345 1.05002C13.6723 -0.343007 18.3277 -0.343007 22.655 1.05002C22.7552 1.0827 22.8426 1.14624 22.9046 1.23155C22.9665 1.31686 22.9999 1.41958 23 1.52502V5.47602C23 5.60863 22.9473 5.7358 22.8536 5.82957C22.7598 5.92334 22.6326 5.97602 22.5 5.97602Z" fill="#F9E507"/>
<path d="M22.7071 7.29296C22.5196 7.10549 22.2652 7.00017 22.0001 7.00017C21.7349 7.00017 21.4806 7.10549 21.2931 7.29296L17.5861 11H14.4141L10.7071 7.29296C10.6148 7.19745 10.5045 7.12127 10.3825 7.06886C10.2605 7.01645 10.1293 6.98886 9.99648 6.98771C9.8637 6.98655 9.73202 7.01186 9.60913 7.06214C9.48623 7.11242 9.37458 7.18667 9.28069 7.28056C9.18679 7.37446 9.11254 7.48611 9.06226 7.60901C9.01198 7.7319 8.98668 7.86358 8.98783 7.99636C8.98898 8.12914 9.01657 8.26036 9.06898 8.38236C9.12139 8.50437 9.19757 8.61471 9.29308 8.70696L13.0001 12.414V16H19.0001V12.414L22.7071 8.70696C22.8946 8.51943 22.9999 8.26512 22.9999 7.99996C22.9999 7.73479 22.8946 7.48049 22.7071 7.29296Z" fill="#F9E507"/>
</g>
<defs>
<clipPath id="clip0_41_98">
<rect width="16" height="16" fill="white" transform="translate(8)"/>
</clipPath>
</defs>
</svg>
