<svg width="32" height="32" viewBox="0 0 32 32" fill="none" xmlns="http://www.w3.org/2000/svg">
<rect width="32" height="32" rx="16" fill="#262626"/>
<g clip-path="url(#clip0_41_140)">
<path d="M16 8C11.6 8 8 11.6 8 16C8 20.4 11.6 24 16 24C20.4 24 24 20.4 24 16C24 11.6 20.4 8 16 8ZM18 13C18.6 13 19 13.4 19 14C19 14.6 18.6 15 18 15C17.4 15 17 14.6 17 14C17 13.4 17.4 13 18 13ZM14 13C14.6 13 15 13.4 15 14C15 14.6 14.6 15 14 15C13.4 15 13 14.6 13 14C13 13.4 13.4 13 14 13ZM19.8 18.3C19.2 19.9 17.7 21 16 21C14.3 21 12.8 19.9 12.2 18.3C12 17.8 12.3 17.2 12.8 17.1C13.3 16.9 13.9 17.2 14.1 17.7C14.4 18.5 15.2 19 16 19C16.8 19 17.6 18.5 17.9 17.7C18.1 17.2 18.7 16.9 19.2 17.1C19.7 17.2 20 17.8 19.8 18.3Z" fill="#F9E507"/>
</g>
<defs>
<clipPath id="clip0_41_140">
<rect width="16" height="16" fill="white" transform="translate(8 8)"/>
</clipPath>
</defs>
</svg>
